<?xml version="1.0" encoding="utf-8"?>
<!-- Generator: Adobe Illustrator 27.0.0, SVG Export Plug-In . SVG Version: 6.00 Build 0)  -->
<svg version="1.1" id="レイヤー_1" xmlns="http://www.w3.org/2000/svg" xmlns:xlink="http://www.w3.org/1999/xlink" x="0px"
	 y="0px" viewBox="0 0 320 512" style="enable-background:new 0 0 320 512;" xml:space="preserve">
<style type="text/css">
	.st0{fill:#363636;}
</style>
<path class="st0" d="M113,96c26.5,0,48-21.5,48-48S139.5,0,113,0S65,21.5,65,48S86.5,96,113,96z M178.7,128.6l-80,16l-15.3,3.1
	l-7,14l-35.2,70.5L2.7,251.4l28.6,57.2l48-24l9.5-4.8l4.8-9.5l13.7-27.4l18.4,62.4l-52.3,57l-5.2,5.7l-2,7.5l-24,88l-8.4,30.9
	l61.7,16.8l8.4-30.9l22-80.5l70.9-77.4c14.8-16.1,20.3-38.6,14.7-59.7l-17-63.6l36.7,16.3l11.5,34.6l10.1,30.4l60.7-20.2l-10.1-30.4
	l-16-48l-4.5-13.4l-12.9-5.7l-72-32l-9.3-4.1L178.7,128.6L178.7,128.6z M227.4,335.7c-2.2,3-4.5,5.9-7,8.6l-40.7,44.4l15.7,39.3
	l2.4,6.1l4.6,4.6l48,48l22.6,22.6l45.3-45.3l-22.7-22.6L252.3,398L227.4,335.7z"/>
</svg>
