<?xml version="1.0" encoding="UTF-8"?><svg id="_レイヤー_1" xmlns="http://www.w3.org/2000/svg" viewBox="0 0 100 100"><defs><style>.cls-1{fill:#f4e90f;}.cls-2{fill:#fff;}.cls-3{fill:#cec015;}.cls-4{fill:#bfd1bf;}.cls-5{fill:#6c8c6c;}.cls-6{fill:#515556;}</style></defs><path class="cls-2" d="M81.51298,46.1337c16.28906,22.84951-4.02669,51.45734-32.64788,51.02132-30.46779,.34205-50.38071-31.1742-30.38503-53.83671,6.94697,4.781,15.36823,7.75734,24.62132,8.73613v13.41038c-8.82477,2.74158-15.14989,10.03331-15.47377,10.41231-.54215,.63424-.54215,1.56878,0,2.20302,.39935,.4673,9.91976,11.44328,22.00129,11.44328s21.60187-10.97598,22.00129-11.44328c.54215-.63424,.54215-1.56878,0-2.20302-.32395-.379-6.64914-7.67087-15.47391-10.41238v-13.41031c8.82056-.92853,16.93893-3.72095,23.65478-8.1112l.00028,.00028c.60101,.70839,1.15764,1.44326,1.70164,2.19019Z"/><path class="cls-1" d="M69.04266,75.61118c-12.62387-12.54165-26.24218-12.50211-38.82543-.00207,10.78194-1.96992,28.04553-1.96904,38.82543,.00207Z"/><path class="cls-1" d="M49.63739,75.89988c-7.59169-.00305-14.61067,.6245-20.19086,1.65963,12.98491,13.58759,27.45147,13.51616,40.36792-.00331-5.58105-1.03401-12.57939-1.65673-20.17706-1.65632Z"/><path class="cls-3" d="M79.11984,39.91909c-.04994-1.93964-.22641-3.84119-.52939-5.68991-7.4322,4.69736-15.36049,7.20315-24.69465,7.93101V6.24818c-2.81057-.50155-5.72294-.50015-8.53393-.00241V42.16019c-9.38561-.73953-17.31256-3.2329-24.69458-7.93101-.38699,2.44016-.59505,4.98052-.53629,7.47654,6.76303,4.56822,15.52675,7.58836,25.23087,8.27903v14.89713c2.7366-.59072,5.7973-.59064,8.53393,0v-14.89713c9.75218-.70186,18.23474-3.67041,25.23094-8.27903,.02283-.59436,.01375-1.19339-.0069-1.78663Zm-52.09604,4.35734c-3.35396-.08502-3.35329-5.0016,.00008-5.08609,3.35388,.08493,3.35323,5.0016-.00008,5.08609Zm10.28524,3.39073c-3.35397-.08497-3.3533-5.00165,.00008-5.08609,3.35387,.08497,3.35322,5.00156-.00008,5.08609ZM49.62863,12.15491c3.35397,.08497,3.3533,5.00165-.00008,5.08609-3.35387-.08497-3.35322-5.00156,.00008-5.08609Zm0,10.45474c3.35397,.08497,3.3533,5.00165-.00008,5.08609-3.35387-.08497-3.35322-5.00156,.00008-5.08609Zm0,36.4503c-3.35395-.08497-3.3533-5.00156,.00008-5.08609,3.35389,.08497,3.35322,5.00165-.00008,5.08609Zm0-10.45474c-3.35395-.08497-3.3533-5.00156,.00008-5.08609,3.35389,.08497,3.35322,5.00165-.00008,5.08609Zm0-10.45474c-3.35395-.08497-3.3533-5.00156,.00008-5.08609,3.35389,.08497,3.35322,5.00165-.00008,5.08609Zm11.18942,9.51668c-3.35396-.08502-3.35329-5.0016,.00008-5.08609,3.35387,.08497,3.35322,5.00156-.00008,5.08609Zm10.28517-3.05167c-3.35396-.08502-3.35329-5.0016,.00008-5.08609,3.35388,.08493,3.35323,5.0016-.00008,5.08609Z"/><path class="cls-1" d="M49.62863,17.241c3.35396-.08493,3.35331-5.0016-.00008-5.08609-3.35388,.08502-3.35321,5.0016,.00008,5.08609Z"/><path class="cls-1" d="M52.17167,25.15269c-.08497-3.35395-5.00156-3.3533-5.08609,.00008,.08497,3.35389,5.00165,3.35322,5.08609-.00008Z"/><path class="cls-1" d="M49.62863,38.15047c3.35396-.08493,3.35331-5.0016-.00008-5.08609-3.35388,.08502-3.35321,5.0016,.00008,5.08609Z"/><path class="cls-1" d="M49.62863,48.60521c3.35396-.08493,3.35331-5.0016-.00008-5.08609-3.35388,.08502-3.35321,5.0016,.00008,5.08609Z"/><path class="cls-1" d="M60.81805,47.66716c3.35396-.08502,3.35329-5.0016-.00008-5.08609-3.35387,.08497-3.35322,5.00156,.00008,5.08609Z"/><path class="cls-1" d="M71.10322,44.61549c3.35397-.08497,3.3533-5.00165-.00008-5.08609-3.35387,.08497-3.35322,5.00156,.00008,5.08609Z"/><path class="cls-1" d="M37.30904,47.66716c3.35396-.08502,3.35329-5.0016-.00008-5.08609-3.35388,.08493-3.35323,5.0016,.00008,5.08609Z"/><path class="cls-1" d="M27.0238,44.27643c3.35397-.08497,3.3533-5.00165-.00008-5.08609-3.35387,.08497-3.35322,5.00156,.00008,5.08609Z"/><path class="cls-1" d="M49.62863,59.05994c3.35396-.08493,3.35331-5.0016-.00008-5.08609-3.35388,.08502-3.35321,5.0016,.00008,5.08609Z"/><path class="cls-4" d="M80.28161,30.57142c.20373,1.2826,.66592,3.911,.80346,5.16866,16.04923-1.78447,22.72307-20.17023,9.55904-29.6954,2.34072,8.74902-3.7279,15.69151-12.89617,17.14595,1.0751,2.34584,1.92319,4.82473,2.53366,7.38079Z"/><path class="cls-4" d="M8.71056,11.13235c0-1.26035,.17012-2.48406,.46903-3.66535-12.88238,9.28858-6.80117,27.30597,8.79055,29.59241,.3234-4.43618,1.35051-8.72736,3.00234-12.68714-7.16969-1.66342-12.26192-6.08278-12.26192-13.23992Z"/><path class="cls-5" d="M21.00138,31.74581c-.00007,.00034-.00021,.00069-.00028,.0011l.90294,.59009c1.18515,.77463,2.43363,1.47806,3.71378,2.14155,.79463,.41184,1.60568,.80139,2.4337,1.16942,4.59457,2.04194,9.67231,3.41991,15.04986,4.03338V6.72914c-.49593,.13135-.98737,.27739-1.47406,.43764-.00124,.00041-.00255,.00083-.00379,.00124-7.30697,2.40701-13.52634,8.02186-17.37126,15.49792-.17612,.34251-.34078,.69316-.50683,1.04332-.1706,.35989-.34334,.71827-.50303,1.08595-.71295,1.64218-1.31878,3.35885-1.80036,5.14128-.00069,.00255-.00138,.0051-.00207,.00759-.16018,.5934-.30657,1.19405-.4386,1.80174Z"/><path class="cls-5" d="M56.15629,30.91572v8.76565c5.04615-.57561,9.83436-1.81602,14.20232-3.65307,.83271-.35023,1.65094-.72075,2.45157-1.11444,1.58119-.77752,3.10134-1.63424,4.54352-2.57685l.88914-.58113c-.00014-.00048-.00028-.00103-.00041-.00159-.63804-2.91425-1.61072-5.66942-2.84623-8.22937-.17736-.36755-.36044-.72986-.54891-1.08885-.18833-.35858-.37921-.71509-.57837-1.06484-4.15293-7.29325-10.62278-12.64189-18.11229-14.63713-.00007-.00007-.00028-.00007-.00034-.00007V30.91572Z"/><g><path class="cls-6" d="M35.93907,61.51517c0-3.92763-2.7064-7.11161-6.0449-7.11161-7.99539,.30545-7.99297,13.91934,.00012,14.22316,3.33838,0,6.04478-3.18398,6.04478-7.11155Z"/><path class="cls-6" d="M69.71912,54.40356c-3.33843,0-6.04483,3.18398-6.04483,7.11161,.28986,9.4199,11.80089,9.41788,12.08974-.0001,0-3.92753-2.70641-7.11151-6.04491-7.11151Z"/><path class="cls-6" d="M99.92446,19.0684c0-5.79566-2.90073-11.21101-7.95839-14.85733l-5.03635-3.63107c.45869,2.13509,2.02944,6.99832,1.92289,9.13002-.00002,4.87818-3.30099,10.03277-12.14756,11.38776C63.96927-2.77468,33.66518-1.87726,21.90025,22.30984c-7.93777-1.62396-10.92921-6.52848-10.92921-11.17749-.11224-2.10781,1.46875-7.02732,1.92294-9.13003l-5.03635,3.63107C-6.83365,16.28621,.25389,36.89541,17.87018,39.32217c-.00855,.45316-.0198,.90597-.01366,1.36113-22.90371,23.79198-2.16552,59.08483,31.00936,58.73225,31.97334,.44805,53.15222-33.07194,32.51121-57.09193,.0041-.39113,.02043-.89685,.02442-1.28456,.00007-.00172,.00048-.00304,.00055-.00476,.00014-.0069-.00021-.0138-.00007-.0207,.00066-.01957,.0003-.03914-.00021-.05871,.01876-.99655-.00759-1.98703-.05995-2.97289,10.47281-1.25331,18.58263-9.24578,18.58263-18.91361Zm-43.76817,14.09629V6.73404c.00014,0,.00021,.00007,.00034,.00007,8.55871,2.28007,15.46751,8.90417,19.23943,16.79055,1.25566,2.59791,2.22013,5.39397,2.84637,8.22964,.00014,.00055,.00028,.00103,.00041,.00159-6.6161,4.46583-13.96003,6.97267-22.08655,7.92549v-6.51669Zm-10.79442-2.71371V6.24943c.75012-.13023,1.51163-.21819,2.27118-.29443h.00055c1.31491-.11379,2.66471-.11447,3.97965-.00048h.00014c.1221,.00966,.24358,.02159,.36534,.03297,.00014,0,.00028,.00007,.00041,.00007,.64507,.06029,1.28304,.15225,1.91666,.26069V42.16019c9.3348-.72806,17.26189-3.23346,24.69465-7.93101,.39016,2.41358,.59018,4.97993,.53629,7.47654-6.99496,4.60819-15.48015,7.57763-25.23094,8.27903v14.89713c-2.73663-.59064-5.79734-.59072-8.53393,0v-14.89713c-9.70412-.69067-18.46784-3.71081-25.23087-8.27903-.05877-2.49594,.1493-5.03647,.53629-7.47654,7.38093,4.69773,15.3102,7.19187,24.69458,7.93101v-11.70922Zm33.57654,5.76683c.02352,.26711,.04629,.53449,.06733,.8025,0,.00041,.00007,.00083,.00007,.00124-.02104-.26842-.04105-.53718-.0674-.80374Zm-29.30806,37.89428c-7.2175,.00076-13.88444,.55519-19.41313,1.49703,12.714-12.54595,26.14867-12.50873,38.82543,.00207-5.52842-.94281-12.19121-1.49696-19.4123-1.4991Zm20.1841,3.44412c-12.97712,13.58183-27.44365,13.52858-40.36792,.00331,10.8719-2.18081,29.49779-2.17974,40.36792-.00331ZM21.00138,31.74581c2.41182-11.35176,10.59098-21.9785,22.10001-25.01522V39.68137c-8.17288-.96171-15.46534-3.49227-22.10028-7.93446,.00007-.00034,.00021-.00076,.00028-.0011ZM2.15972,20.49072c0-5.24827,2.73489-9.93439,7.01986-13.02372-2.24326,8.30218,3.23218,15.19071,11.7929,16.90527-1.65183,3.95978-2.67894,8.25096-3.00234,12.68714-8.9833-1.40211-15.81042-8.27821-15.81042-16.56869Zm79.35326,25.64298c16.28906,22.84951-4.02669,51.45734-32.64788,51.02132-30.46779,.34205-50.38071-31.1742-30.38503-53.83671,6.94697,4.781,15.36823,7.75734,24.62132,8.73613v13.41038c-8.82477,2.74158-15.14989,10.03331-15.47377,10.41231-.54215,.63424-.54215,1.56878,0,2.20302,.39935,.4673,9.91976,11.44328,22.00129,11.44328s21.60187-10.97598,22.00129-11.44328c.54215-.63424,.54215-1.56878,0-2.20302-.32395-.379-6.64914-7.67087-15.47391-10.41238v-13.41031c8.82056-.92853,16.93893-3.72095,23.65478-8.1112l.00028,.00028c.60101,.70839,1.15764,1.44326,1.70164,2.19019Zm-.34478-10.407c-.18867-1.74717-.48558-3.46951-.88659-5.15528l-.02194-.13376-.00952,.00628c-.60665-2.51435-1.44564-4.94557-2.50221-7.2533,9.16793-1.45314,15.2374-8.3988,12.89617-17.14595,13.13806,9.50476,6.51833,27.84442-9.47592,29.68202Z"/></g></svg>