<?xml version="1.0" encoding="utf-8"?>
<!-- Generator: Adobe Illustrator 27.0.0, SVG Export Plug-In . SVG Version: 6.00 Build 0)  -->
<svg version="1.1" id="レイヤー_1" xmlns="http://www.w3.org/2000/svg" xmlns:xlink="http://www.w3.org/1999/xlink" x="0px"
	 y="0px" viewBox="0 0 640 512" style="enable-background:new 0 0 640 512;" xml:space="preserve">
<style type="text/css">
	.st0{fill:#363636;}
</style>
<path class="st0" d="M352,128c0,70.7-57.3,128-128,128S96,198.7,96,128S153.3,0,224,0S352,57.3,352,128z M0,482.3
	C0,383.8,79.8,304,178.3,304h91.4c98.5,0,178.3,79.8,178.3,178.3c0,16.4-13.3,29.7-29.7,29.7H29.7C13.3,512,0,498.7,0,482.3z
	 M504,312v-64h-64c-13.3,0-24-10.7-24-24s10.7-24,24-24h64v-64c0-13.3,10.7-24,24-24s24,10.7,24,24v64h64c13.3,0,24,10.7,24,24
	s-10.7,24-24,24h-64v64c0,13.3-10.7,24-24,24S504,325.3,504,312z"/>
</svg>
