<?xml version="1.0" encoding="utf-8"?>
<!-- Generator: Adobe Illustrator 27.0.0, SVG Export Plug-In . SVG Version: 6.00 Build 0)  -->
<svg version="1.1" id="レイヤー_1" xmlns="http://www.w3.org/2000/svg" xmlns:xlink="http://www.w3.org/1999/xlink" x="0px"
	 y="0px" viewBox="0 0 512 512" style="enable-background:new 0 0 512 512;" xml:space="preserve">
<style type="text/css">
	.st0{fill:#4A4A4A;}
</style>
<path class="st0" d="M16,0h128c5.3,0,10.3,2.7,13.3,7.1l81.1,121.6c-49.5,4.1-94,25.6-127.6,58.3L2.7,24.9C-0.6,20-0.9,13.7,1.9,8.5
	S10.1,0,16,0z M509.3,24.9L401.2,187.1c-33.5-32.7-78.1-54.2-127.6-58.3L354.7,7.1c3-4.5,8-7.1,13.3-7.1h128
	c5.9,0,11.3,3.2,14.1,8.5S512.6,20,509.3,24.9L509.3,24.9z M432,336c0,97.2-78.8,176-176,176S80,433.2,80,336s78.8-176,176-176
	S432,238.8,432,336z M264.4,241.1c-3.4-7-13.3-7-16.8,0l-22.4,45.4c-1.4,2.8-4,4.7-7,5.1l-50.2,7.3c-7.7,1.1-10.7,10.5-5.2,16
	l36.3,35.4c2.2,2.2,3.2,5.2,2.7,8.3l-8.6,49.9c-1.3,7.6,6.7,13.5,13.6,9.9l44.8-23.6c2.7-1.4,6-1.4,8.7,0l44.8,23.6
	c6.9,3.6,14.9-2.2,13.6-9.9l-8.6-49.9c-0.5-3,0.5-6.1,2.7-8.3l36.3-35.4c5.6-5.4,2.5-14.8-5.2-16l-50.1-7.3c-3-0.4-5.7-2.4-7-5.1
	L264.4,241.1z"/>
</svg>
