<?xml version="1.0" encoding="utf-8"?>
<!-- Generator: Adobe Illustrator 27.0.0, SVG Export Plug-In . SVG Version: 6.00 Build 0)  -->
<svg version="1.1" id="レイヤー_1" xmlns="http://www.w3.org/2000/svg" xmlns:xlink="http://www.w3.org/1999/xlink" x="0px"
	 y="0px" viewBox="0 0 640 512" style="enable-background:new 0 0 640 512;" xml:space="preserve">
<style type="text/css">
	.st0{fill:#363636;}
</style>
<path class="st0" d="M176,104c13.3,0,24-10.7,24-24s-10.7-24-24-24s-24,10.7-24,24S162.7,104,176,104z M256,80
	c0,32.8-19.7,61-48,73.3v87.8c18.8-10.9,40.7-17.1,64-17.1h96c35.3,0,64-28.7,64-64v-6.7c-28.3-12.3-48-40.5-48-73.3
	c0-44.2,35.8-80,80-80s80,35.8,80,80c0,32.8-19.7,61-48,73.3v6.7c0,70.7-57.3,128-128,128h-96c-35.3,0-64,28.7-64,64v6.7
	c28.3,12.3,48,40.5,48,73.3c0,44.2-35.8,80-80,80s-80-35.8-80-80c0-32.8,19.7-61,48-73.3V352V153.3C115.7,141,96,112.8,96,80
	c0-44.2,35.8-80,80-80S256,35.8,256,80z M488,80c0-13.3-10.7-24-24-24s-24,10.7-24,24s10.7,24,24,24S488,93.3,488,80z M176,456
	c13.3,0,24-10.7,24-24s-10.7-24-24-24s-24,10.7-24,24S162.7,456,176,456z"/>
</svg>
