<?xml version="1.0" encoding="utf-8"?>
<!-- Generator: Adobe Illustrator 27.0.0, SVG Export Plug-In . SVG Version: 6.00 Build 0)  -->
<svg version="1.1" id="レイヤー_1" xmlns="http://www.w3.org/2000/svg" xmlns:xlink="http://www.w3.org/1999/xlink" x="0px"
	 y="0px" viewBox="0 0 640 512" style="enable-background:new 0 0 640 512;" xml:space="preserve">
<style type="text/css">
	.st0{fill:#363636;}
</style>
<path class="st0" d="M373.1,233.2l-72.5,92.3l-37-31.7c-10.1-8.6-25.2-7.5-33.8,2.6c-8.6,10.1-7.5,25.2,2.6,33.8l56,48
	c4.4,2.9,9.9,5.8,15.6,5.8c0.8,0,1.6,0,2.3-0.1c6.5-0.6,12.5-3.9,16.5-9.1l88-112c8.2-10.4,6.4-25.5-4-33.7
	C396.4,220.1,381.3,222.8,373.1,233.2z M448,64h-49.6C390.1,27.5,358.7,0,320,0s-71,27.5-78.4,64H192c-35.4,0-64,28.7-64,64v320
	c0,35.3,28.6,64,64,64h256c35.4,0,64-28.7,64-64V128C512,92.7,483.3,64,448,64z M320,48c13.2,0,24,10.8,24,24s-10.8,24-24,24
	s-24-10.8-24-24S306.8,48,320,48z M464,448c0,8.8-7.2,16-16,16H192c-8.8,0-16-7.2-16-16V128c0-8.8,7.2-16,16-16h18.3
	c-1.3,5.1-2.3,10.4-2.3,16v16c0,8.8,7.2,16,16,16h192c8.8,0,16-7.2,16-16v-16c0-5.6-0.9-10.9-2.3-16H448c8.8,0,16,7.2,16,16V448z"/>
</svg>
